<svg width="22" height="22" viewBox="0 0 22 22" fill="none" xmlns="http://www.w3.org/2000/svg">
<path fill-rule="evenodd" clip-rule="evenodd" d="M2.20711 0.792893C1.81658 0.402369 1.18342 0.402369 0.792893 0.792893C0.402369 1.18342 0.402369 1.81658 0.792893 2.20711L9.58698 11.0012L0.792893 19.7953C0.402369 20.1858 0.402369 20.819 0.792893 21.2095C1.18342 21.6 1.81658 21.6 2.20711 21.2095L11.0012 12.4154L19.7953 21.2095C20.1858 21.6 20.819 21.6 21.2095 21.2095C21.6 20.819 21.6 20.1858 21.2095 19.7953L12.4154 11.0012L21.2095 2.20711C21.6 1.81659 21.6 1.18342 21.2095 0.792899C20.819 0.402375 20.1858 0.402375 19.7953 0.792899L11.0012 9.58698L2.20711 0.792893Z" fill="white"/>
</svg>
