<svg width="30" height="30" viewBox="0 0 30 30" fill="none" xmlns="http://www.w3.org/2000/svg">
<path d="M25.0669 7.59374C25.0262 7.52999 24.98 7.48 24.9194 7.43437C24.4387 7.07312 22 5.3475 18.8787 5.0125C18.8725 5.01187 18.8488 5.01062 18.8431 5.01062C18.7819 5.01062 18.7288 5.04624 18.7031 5.09812L18.535 5.43437C18.5244 5.45499 18.5181 5.47874 18.5181 5.50374C18.5181 5.57187 18.5619 5.62999 18.6231 5.65124C18.6269 5.65249 18.6531 5.65812 18.6625 5.65999C21.3294 6.30249 22.9519 7.46624 24.3806 8.75062C21.8512 7.45937 19.3531 6.24999 15 6.24999C10.6469 6.24999 8.14938 7.46 5.61938 8.75062C7.04813 7.46624 8.67063 6.30249 11.3375 5.65999C11.3469 5.65749 11.3731 5.65249 11.3769 5.65124C11.4381 5.62999 11.4819 5.57187 11.4819 5.50374C11.4819 5.47874 11.4763 5.45499 11.4656 5.43437L11.2969 5.09812C11.2713 5.04624 11.2188 5.01062 11.1569 5.01062C11.1513 5.01062 11.1269 5.01187 11.1213 5.0125C8 5.3475 5.56125 7.07312 5.08063 7.43437C5.02 7.48 4.97438 7.52999 4.93313 7.59374C4.49063 8.28562 1.7775 12.8362 1.25063 21.1137C1.245 21.2025 1.27563 21.2944 1.335 21.3606C4.205 24.5756 8.32375 24.9556 9.2025 25C9.30688 25.005 9.40688 24.9594 9.46938 24.8756L10.2706 23.8075C10.3331 23.7237 10.2994 23.6062 10.2013 23.5706C8.51063 22.9544 6.62813 21.8831 4.99375 20.0044C7.01938 21.5356 10.075 23.125 15 23.125C19.925 23.125 22.9806 21.5356 25.0056 20.0044C23.3706 21.8831 21.4888 22.9537 19.7981 23.5706C19.7 23.6062 19.6663 23.7237 19.7288 23.8075L20.53 24.8756C20.5931 24.9594 20.6925 25.0056 20.7969 25C21.6763 24.955 25.7944 24.5756 28.6644 21.3606C28.7237 21.2944 28.7544 21.2025 28.7488 21.1137C28.2225 12.8362 25.5094 8.28562 25.0669 7.59374Z" fill="url(#paint0_radial_223_525)"/>
<path opacity="0.05" d="M19.0625 19.375C20.6158 19.375 21.875 17.9759 21.875 16.25C21.875 14.5241 20.6158 13.125 19.0625 13.125C17.5092 13.125 16.25 14.5241 16.25 16.25C16.25 17.9759 17.5092 19.375 19.0625 19.375Z" fill="black"/>
<path opacity="0.05" d="M19.0625 19.0625C20.4432 19.0625 21.5625 17.8033 21.5625 16.25C21.5625 14.6967 20.4432 13.4375 19.0625 13.4375C17.6818 13.4375 16.5625 14.6967 16.5625 16.25C16.5625 17.8033 17.6818 19.0625 19.0625 19.0625Z" fill="black"/>
<path d="M19.0625 18.75C20.2706 18.75 21.25 17.6307 21.25 16.25C21.25 14.8693 20.2706 13.75 19.0625 13.75C17.8544 13.75 16.875 14.8693 16.875 16.25C16.875 17.6307 17.8544 18.75 19.0625 18.75Z" fill="#3D3D3D"/>
<path opacity="0.05" d="M10.9375 19.375C12.4908 19.375 13.75 17.9759 13.75 16.25C13.75 14.5241 12.4908 13.125 10.9375 13.125C9.3842 13.125 8.125 14.5241 8.125 16.25C8.125 17.9759 9.3842 19.375 10.9375 19.375Z" fill="black"/>
<path opacity="0.05" d="M10.9375 19.0625C12.3182 19.0625 13.4375 17.8033 13.4375 16.25C13.4375 14.6967 12.3182 13.4375 10.9375 13.4375C9.55679 13.4375 8.4375 14.6967 8.4375 16.25C8.4375 17.8033 9.55679 19.0625 10.9375 19.0625Z" fill="black"/>
<path d="M10.9375 18.75C12.1456 18.75 13.125 17.6307 13.125 16.25C13.125 14.8693 12.1456 13.75 10.9375 13.75C9.72938 13.75 8.75 14.8693 8.75 16.25C8.75 17.6307 9.72938 18.75 10.9375 18.75Z" fill="#3D3D3D"/>
<defs>
<radialGradient id="paint0_radial_223_525" cx="0" cy="0" r="1" gradientUnits="userSpaceOnUse" gradientTransform="translate(15 6.25562) scale(20.1575)">
<stop stop-color="#8C9EFF"/>
<stop offset="0.368" stop-color="#889AF8"/>
<stop offset="0.889" stop-color="#7E8FE6"/>
<stop offset="1" stop-color="#7B8CE1"/>
</radialGradient>
</defs>
</svg>
