<svg width="50" height="50" viewBox="0 0 50 50" fill="none" xmlns="http://www.w3.org/2000/svg">
<g clip-path="url(#clip0_23_186)">
<path d="M2 25.5C2 19.5326 4.37053 13.8097 8.5901 9.5901C12.8097 5.37053 18.5326 3 24.5 3C30.4674 3 36.1903 5.37053 40.4099 9.5901C44.6295 13.8097 47 19.5326 47 25.5C47 31.4674 44.6295 37.1903 40.4099 41.4099C36.1903 45.6295 30.4674 48 24.5 48C18.5326 48 12.8097 45.6295 8.5901 41.4099C4.37053 37.1903 2 31.4674 2 25.5ZM23.0938 6.02906C21.2094 6.60281 19.3391 8.33531 17.7866 11.2462C17.2751 12.214 16.8351 13.218 16.4703 14.25H23.0938V6.02906ZM13.5031 14.25C13.9719 12.756 14.5743 11.3074 15.3031 9.92156C15.7894 9.00203 16.351 8.12434 16.9822 7.2975C13.4975 8.74264 10.4994 11.1552 8.34219 14.25H13.5031ZM11.8662 24.0938C11.9506 21.6272 12.2544 19.2619 12.7437 17.0625H6.70813C5.65939 19.2705 5.0336 21.6553 4.86313 24.0938H11.8662ZM15.6322 17.0625C15.079 19.3682 14.7605 21.7239 14.6816 24.0938H23.0938V17.0625H15.6322ZM25.9062 17.0625V24.0938H34.3156C34.2377 21.724 33.9201 19.3683 33.3678 17.0625H25.9062ZM14.6844 26.9062C14.7624 29.276 15.08 31.6317 15.6322 33.9375H23.0938V26.9062H14.6844ZM25.9062 26.9062V33.9375H33.3678C33.8937 31.7859 34.2284 29.415 34.3184 26.9062H25.9062ZM16.4703 36.75C16.8584 37.8356 17.3 38.8425 17.7866 39.7537C19.3391 42.6647 21.2122 44.3944 23.0938 44.9709V36.75H16.4703ZM16.9822 43.7025C16.351 42.8757 15.7894 41.998 15.3031 41.0784C14.5743 39.6926 13.9719 38.2439 13.5031 36.75H8.34219C10.4993 39.8449 13.4974 42.2575 16.9822 43.7025ZM12.7437 33.9375C12.2352 31.6258 11.9414 29.272 11.8662 26.9062H4.86313C5.0375 29.4094 5.68156 31.7803 6.70813 33.9375H12.7437ZM32.0178 43.7025C35.5026 42.2575 38.5007 39.8449 40.6578 36.75H35.4969C35.0281 38.2439 34.4256 39.6926 33.6969 41.0784C33.2107 41.998 32.6491 42.8757 32.0178 43.7025ZM25.9062 36.75V44.9709C27.7906 44.3972 29.6609 42.6647 31.2134 39.7537C31.7 38.8425 32.1416 37.8356 32.5297 36.75H25.9062ZM36.2563 33.9375H42.2919C43.3184 31.7803 43.9625 29.4094 44.1369 26.9062H37.1337C37.0586 29.272 36.7649 31.6258 36.2563 33.9375ZM44.1369 24.0938C43.9663 21.6554 43.3405 19.2705 42.2919 17.0625H36.2563C36.7456 19.2619 37.0494 21.6272 37.1337 24.0938H44.1369ZM33.6969 9.92156C34.3916 11.2266 34.9962 12.6778 35.4969 14.25H40.6578C38.5007 11.1551 35.5026 8.7425 32.0178 7.2975C32.6309 8.09625 33.1934 8.97937 33.6969 9.92156ZM32.5297 14.25C32.1649 13.2179 31.725 12.214 31.2134 11.2462C29.6609 8.33531 27.7906 6.60563 25.9062 6.02906V14.25H32.5297Z" fill="white"/>
</g>
<defs>
<clipPath id="clip0_23_186">
<rect width="45" height="45" fill="white" transform="translate(2 3)"/>
</clipPath>
</defs>
</svg>
