<svg width="50" height="50" viewBox="0 0 50 50" fill="none" xmlns="http://www.w3.org/2000/svg">
<path d="M16.006 13.8126C15.7952 13.8129 15.5872 13.8606 15.3974 13.9521C15.2075 14.0436 15.0406 14.1766 14.9091 14.3413L6.33075 25.0629H18.8748C19.2478 25.0629 19.6055 25.211 19.8692 25.4748C20.133 25.7385 20.2811 26.0962 20.2811 26.4692C20.2811 27.5881 20.7256 28.6612 21.5168 29.4524C22.308 30.2436 23.3811 30.688 24.5 30.688C25.6189 30.688 26.692 30.2436 27.4832 29.4524C28.2744 28.6612 28.7189 27.5881 28.7189 26.4692C28.7189 26.0962 28.867 25.7385 29.1308 25.4748C29.3945 25.211 29.7522 25.0629 30.1252 25.0629H42.6692L34.0909 14.3413C33.9594 14.1766 33.7925 14.0436 33.6026 13.9521C33.4128 13.8606 33.2048 13.8129 32.994 13.8126H16.006ZM12.7153 12.5835C13.1102 12.0899 13.6109 11.6913 14.1805 11.4172C14.75 11.1432 15.3739 11.0006 16.006 11H32.994C33.6261 11.0006 34.25 11.1432 34.8195 11.4172C35.3891 11.6913 35.8898 12.0899 36.2847 12.5835L46.6912 25.5916C46.8086 25.7382 46.8955 25.9068 46.9467 26.0874C46.9979 26.2681 47.0124 26.4572 46.9894 26.6436L45.8925 35.43C45.7649 36.4507 45.2689 37.3896 44.4977 38.0702C43.7264 38.7508 42.7331 39.1262 41.7045 39.1258H7.29547C6.26688 39.1262 5.27358 38.7508 4.50234 38.0702C3.73111 37.3896 3.23509 36.4507 3.10754 35.43L2.01064 26.6436C1.98758 26.4572 2.00209 26.2681 2.05329 26.0874C2.1045 25.9068 2.19136 25.7382 2.30877 25.5916L12.7153 12.5835Z" fill="white"/>
</svg>
