<svg width="50" height="50" viewBox="0 0 50 50" fill="none" xmlns="http://www.w3.org/2000/svg">
<path d="M16.0059 13.8126C15.7951 13.8129 15.5871 13.8605 15.3973 13.9521C15.2074 14.0436 15.0405 14.1766 14.909 14.3413L6.33072 25.0628H18.8747C19.2477 25.0628 19.6054 25.2109 19.8691 25.4747C20.1328 25.7384 20.281 26.0961 20.281 26.469C20.281 27.5879 20.7255 28.661 21.5166 29.4522C22.3078 30.2434 23.3809 30.6879 24.4998 30.6879C25.6187 30.6879 26.6918 30.2434 27.483 29.4522C28.2742 28.661 28.7186 27.5879 28.7186 26.469C28.7186 26.0961 28.8668 25.7384 29.1305 25.4747C29.3943 25.2109 29.7519 25.0628 30.1249 25.0628H42.6689L34.0906 14.3413C33.9591 14.1766 33.7922 14.0436 33.6024 13.9521C33.4125 13.8605 33.2045 13.8129 32.9937 13.8126H16.0059ZM44.0021 27.8753H31.3906C31.0678 29.4648 30.2055 30.8939 28.9496 31.9203C27.6938 32.9467 26.1217 33.5075 24.4998 33.5075C22.8779 33.5075 21.3058 32.9467 20.05 31.9203C18.7942 30.8939 17.9318 29.4648 17.6091 27.8753H4.99757L5.89759 35.0811C5.94014 35.4216 6.10575 35.7348 6.36322 35.9617C6.62069 36.1886 6.95224 36.3136 7.29542 36.313H41.7042C42.0469 36.3129 42.3778 36.1876 42.6346 35.9608C42.8915 35.734 43.0567 35.4211 43.0992 35.0811L43.9992 27.8753H44.0021ZM12.7124 12.5835C13.1078 12.0891 13.6095 11.6901 14.1801 11.416C14.7507 11.1419 15.3757 10.9997 16.0087 11H32.9909C33.6239 10.9997 34.2489 11.1419 34.8195 11.416C35.3902 11.6901 35.8918 12.0891 36.2872 12.5835L46.6937 25.5915C46.8106 25.7383 46.8969 25.907 46.9477 26.0876C46.9984 26.2683 47.0124 26.4573 46.989 26.6434L45.8921 35.4298C45.7645 36.4505 45.2685 37.3894 44.4973 38.07C43.7261 38.7505 42.7328 39.1259 41.7042 39.1255H7.29542C6.26684 39.1259 5.27355 38.7505 4.50232 38.07C3.7311 37.3894 3.23508 36.4505 3.10753 35.4298L2.01064 26.6434C1.98758 26.4571 2.00209 26.268 2.05329 26.0873C2.1045 25.9067 2.19136 25.7381 2.30877 25.5915L12.7124 12.5835Z" fill="white"/>
</svg>
