<svg width="50" height="50" viewBox="0 0 50 50" fill="none" xmlns="http://www.w3.org/2000/svg">
<path d="M10.7526 12.6273C10.5112 10.1486 12.4594 8 14.9516 8L21.6877 8.00005C22.4643 8.00006 23.0939 8.62965 23.0939 9.4063V10.4808C23.0939 12.4376 21.6953 13.8056 20.642 14.612C20.4594 14.7518 20.3637 14.8688 20.3183 14.9439C20.2966 14.9798 20.2879 15.0035 20.2845 15.015C20.2813 15.0256 20.2814 15.0313 20.2814 15.0313L20.2823 15.039C20.2823 15.039 20.2853 15.0518 20.2909 15.0655C20.3023 15.0933 20.3294 15.1453 20.3908 15.2179C20.5191 15.3695 20.7598 15.5664 21.1516 15.7623C21.9359 16.1544 23.1178 16.4376 24.5001 16.4376C25.8825 16.4376 27.0644 16.1544 27.8487 15.7623C28.2405 15.5664 28.4812 15.3695 28.6095 15.2179C28.6708 15.1453 28.698 15.0933 28.7094 15.0655C28.715 15.0518 28.718 15.039 28.718 15.039L28.7189 15.0313C28.7189 15.0313 28.7189 15.0256 28.7158 15.015C28.7124 15.0035 28.7036 14.9798 28.6819 14.9439C28.6365 14.8688 28.5409 14.7518 28.3583 14.612C27.305 13.8056 25.9064 12.4376 25.9064 10.4808V9.4063C25.9064 8.62965 26.536 8.00005 27.3126 8.00005H34.0485C36.5406 8.00005 38.4888 10.1486 38.2474 12.6274L37.5625 20.6562H38.2307C38.7785 20.6562 39.4126 20.2426 40.1288 19.3072C40.7192 18.5359 41.6145 17.8437 42.7812 17.8437C44.3775 17.8437 45.4441 19.1012 46.0278 20.2686C46.6535 21.5201 47 23.1507 47 24.875C47 26.5993 46.6535 28.2298 46.0278 29.4813C45.4441 30.6488 44.3775 31.9062 42.7812 31.9062C41.6145 31.9062 40.7192 31.214 40.1288 30.4428C39.4126 29.5073 38.7785 29.0937 38.2307 29.0937H37.5625L38.2474 37.1227C38.4888 39.6015 36.5406 41.75 34.0485 41.75H27.3126C26.536 41.75 25.9064 41.1204 25.9064 40.3437V39.2693C25.9064 37.3124 27.305 35.9444 28.3583 35.138C28.5409 34.9982 28.6365 34.8813 28.6819 34.8062C28.7036 34.7703 28.7124 34.7465 28.7158 34.735C28.7189 34.7244 28.7189 34.7187 28.7189 34.7187L28.718 34.7111C28.718 34.7111 28.715 34.6982 28.7094 34.6846C28.698 34.6568 28.6708 34.6047 28.6095 34.5322C28.4812 34.3806 28.2405 34.1837 27.8487 33.9878C27.0644 33.5956 25.8825 33.3125 24.5001 33.3125C23.1178 33.3125 21.9359 33.5956 21.1516 33.9878C20.7598 34.1837 20.5191 34.3806 20.3908 34.5322C20.3294 34.6047 20.3023 34.6568 20.2909 34.6846C20.2853 34.6982 20.2823 34.7111 20.2823 34.7111L20.2814 34.7187C20.2814 34.7187 20.2814 34.7246 20.2845 34.735C20.2879 34.7465 20.2966 34.7703 20.3183 34.8062C20.3637 34.8813 20.4594 34.9982 20.642 35.138C21.6953 35.9444 23.0939 37.3124 23.0939 39.2693V40.3437C23.0939 40.7167 22.9457 41.0744 22.682 41.3381C22.4183 41.6018 22.0606 41.75 21.6876 41.75L14.9515 41.7499C12.4594 41.7499 10.5113 39.6014 10.7526 37.1226L11.4375 29.0937H10.7693C10.2215 29.0937 9.5874 29.5073 8.87123 30.4428C8.28078 31.214 7.38545 31.9062 6.21875 31.9062C4.6225 31.9062 3.55593 30.6487 2.97222 29.4813C2.34646 28.2298 2 26.5992 2 24.8749C2 23.1507 2.34646 21.5201 2.97222 20.2686C3.55593 19.1011 4.6225 17.8437 6.21875 17.8437C7.38545 17.8437 8.28078 18.5359 8.87123 19.3071C9.5874 20.2426 10.2215 20.6562 10.7693 20.6562H11.4375L10.7526 12.6273Z" fill="white"/>
</svg>
