<svg width="50" height="50" viewBox="0 0 50 50" fill="none" xmlns="http://www.w3.org/2000/svg">
<path d="M10.7526 12.6273C10.5112 10.1486 12.4594 8 14.9516 8L21.6877 8.00005C22.4643 8.00006 23.0939 8.62965 23.0939 9.4063V10.4808C23.0939 12.4376 21.6953 13.8056 20.642 14.612C20.4594 14.7518 20.3637 14.8688 20.3183 14.9439C20.2966 14.9798 20.2879 15.0035 20.2845 15.015C20.2813 15.0256 20.2814 15.0313 20.2814 15.0313C20.2814 15.0313 20.2815 15.035 20.2823 15.039C20.2831 15.0431 20.2853 15.0518 20.2909 15.0655C20.3023 15.0933 20.3294 15.1453 20.3908 15.2179C20.5191 15.3695 20.7598 15.5664 21.1516 15.7623C21.9359 16.1544 23.1178 16.4376 24.5001 16.4376C25.8825 16.4376 27.0644 16.1544 27.8487 15.7623C28.2405 15.5664 28.4812 15.3695 28.6095 15.2179C28.6708 15.1453 28.698 15.0933 28.7094 15.0655C28.715 15.0518 28.7171 15.0431 28.718 15.039C28.7188 15.035 28.7189 15.0313 28.7189 15.0313C28.7189 15.0313 28.7189 15.0256 28.7158 15.015C28.7124 15.0035 28.7036 14.9798 28.6819 14.9439C28.6365 14.8688 28.5409 14.7518 28.3583 14.612C27.305 13.8056 25.9064 12.4376 25.9064 10.4808V9.4063C25.9064 8.62965 26.536 8.00005 27.3126 8.00005H34.0484C36.5406 8.00005 38.4888 10.1486 38.2474 12.6274L37.5625 20.6562H38.2307C38.7785 20.6562 39.4126 20.2426 40.1288 19.3072C40.7192 18.5359 41.6145 17.8437 42.7812 17.8437C44.3775 17.8437 45.4441 19.1012 46.0278 20.2686C46.6535 21.5201 47 23.1507 47 24.875C47 26.5993 46.6535 28.2298 46.0278 29.4813C45.4441 30.6488 44.3775 31.9062 42.7812 31.9062C41.6145 31.9062 40.7192 31.214 40.1288 30.4428C39.4126 29.5073 38.7785 29.0937 38.2307 29.0937H37.5625L38.2474 37.1227C38.4888 39.6015 36.5406 41.75 34.0484 41.75H27.3126C26.536 41.75 25.9064 41.1204 25.9064 40.3438V39.2693C25.9064 37.3124 27.305 35.9444 28.3583 35.138C28.5409 34.9982 28.6365 34.8813 28.6819 34.8062C28.7036 34.7703 28.7124 34.7465 28.7158 34.735C28.7189 34.7244 28.7189 34.7187 28.7189 34.7187C28.7189 34.7187 28.7188 34.7151 28.718 34.7111C28.7171 34.7069 28.715 34.6982 28.7094 34.6846C28.698 34.6568 28.6708 34.6047 28.6095 34.5322C28.4812 34.3806 28.2405 34.1837 27.8487 33.9878C27.0644 33.5956 25.8825 33.3125 24.5001 33.3125C23.1178 33.3125 21.9359 33.5956 21.1516 33.9878C20.7598 34.1837 20.5191 34.3806 20.3908 34.5322C20.3294 34.6047 20.3023 34.6568 20.2909 34.6846C20.2853 34.6982 20.2831 34.7069 20.2823 34.7111C20.2815 34.7151 20.2814 34.7187 20.2814 34.7187C20.2814 34.7187 20.2814 34.7246 20.2845 34.735C20.2879 34.7465 20.2966 34.7703 20.3183 34.8062C20.3637 34.8813 20.4594 34.9982 20.642 35.138C21.6953 35.9444 23.0939 37.3124 23.0939 39.2693V40.3438C23.0939 40.7167 22.9457 41.0744 22.682 41.3381C22.4183 41.6018 22.0606 41.75 21.6876 41.75L14.9515 41.7499C12.4594 41.7499 10.5113 39.6014 10.7526 37.1226L11.4375 29.0937H10.7693C10.2215 29.0937 9.5874 29.5073 8.87123 30.4428C8.28078 31.214 7.38545 31.9062 6.21875 31.9062C4.6225 31.9062 3.55593 30.6487 2.97222 29.4813C2.34646 28.2298 2 26.5992 2 24.8749C2 23.1507 2.34646 21.5201 2.97222 20.2686C3.55593 19.1011 4.6225 17.8437 6.21875 17.8437C7.38545 17.8437 8.28078 18.5359 8.87123 19.3071C9.5874 20.2426 10.2215 20.6562 10.7693 20.6562H11.4375L10.7526 12.6273ZM14.9515 10.8125C14.1196 10.8125 13.4695 11.5308 13.5523 12.3587L13.5543 12.3791L14.3699 21.9429C14.4034 22.3352 14.2709 22.7236 14.0045 23.0136C13.7382 23.3036 13.3625 23.4687 12.9688 23.4687H10.7693C8.81243 23.4687 7.44443 22.0701 6.63804 21.0168C6.49826 20.8342 6.38128 20.7385 6.30618 20.6931C6.27027 20.6714 6.24654 20.6627 6.23506 20.6593C6.22459 20.6562 6.21881 20.6562 6.21881 20.6562C6.21881 20.6562 6.21508 20.6563 6.2111 20.6571C6.20695 20.6579 6.19827 20.6601 6.18457 20.6657C6.15681 20.677 6.10476 20.7042 6.03221 20.7656C5.88059 20.8939 5.68368 21.1346 5.4878 21.5263C5.09564 22.3107 4.8125 23.4926 4.8125 24.8749C4.8125 26.2573 5.09564 27.4392 5.4878 28.2235C5.68368 28.6153 5.88059 28.856 6.03221 28.9843C6.10476 29.0456 6.15681 29.0728 6.18457 29.0842C6.19827 29.0898 6.20694 29.0919 6.2111 29.0928C6.21508 29.0936 6.21875 29.0937 6.21875 29.0937C6.21875 29.0937 6.22459 29.0937 6.23506 29.0906C6.24654 29.0872 6.27027 29.0784 6.30618 29.0567C6.38128 29.0113 6.49826 28.9156 6.63804 28.7331C7.44443 27.6798 8.81243 26.2812 10.7693 26.2812H12.9688C13.3625 26.2812 13.7382 26.4463 14.0045 26.7363C14.2709 27.0263 14.4034 27.4146 14.3699 27.8069L13.5524 37.3913C13.4696 38.2191 14.1196 38.9374 14.9515 38.9374L20.233 38.9375C20.0993 38.4699 19.6846 37.9471 18.9323 37.3712C18.1611 36.7808 17.4689 35.8854 17.4689 34.7187C17.4689 33.1225 18.7264 32.0559 19.8938 31.4722C21.1453 30.8464 22.7759 30.5 24.5001 30.5C26.2244 30.5 27.855 30.8464 29.1065 31.4722C30.2739 32.0559 31.5314 33.1225 31.5314 34.7187C31.5314 35.8854 30.8392 36.7808 30.068 37.3712C29.3157 37.9471 28.9009 38.4699 28.7673 38.9375H34.0484C34.8804 38.9375 35.5305 38.2192 35.4477 37.3913L35.4457 37.3709L34.6301 27.807C34.5966 27.4147 34.7291 27.0263 34.9955 26.7363C35.2618 26.4463 35.6375 26.2812 36.0312 26.2812H38.2307C40.1876 26.2812 41.5556 27.6798 42.362 28.7331C42.5017 28.9157 42.6187 29.0114 42.6938 29.0568C42.7297 29.0785 42.7535 29.0872 42.7649 29.0906C42.7754 29.0937 42.7812 29.0937 42.7812 29.0937C42.7812 29.0937 42.7849 29.0936 42.7889 29.0928C42.7931 29.092 42.8017 29.0898 42.8154 29.0842C42.8432 29.0729 42.8952 29.0457 42.9678 28.9843C43.1194 28.856 43.3163 28.6153 43.5122 28.2236C43.9044 27.4392 44.1875 26.2573 44.1875 24.875C44.1875 23.4927 43.9044 22.3107 43.5122 21.5264C43.3163 21.1346 43.1194 20.8939 42.9678 20.7657C42.8952 20.7043 42.8432 20.6771 42.8154 20.6657C42.8017 20.6601 42.7931 20.658 42.7889 20.6571C42.7849 20.6563 42.7812 20.6562 42.7812 20.6562C42.7812 20.6562 42.7756 20.6562 42.7649 20.6593C42.7535 20.6627 42.7297 20.6715 42.6938 20.6932C42.6187 20.7386 42.5017 20.8343 42.362 21.0168C41.5556 22.0701 40.1876 23.4687 38.2307 23.4687H36.0312C35.6375 23.4687 35.2618 23.3037 34.9955 23.0137C34.7291 22.7236 34.5966 22.3353 34.6301 21.943L35.4476 12.3587C35.5304 11.5309 34.8804 10.8126 34.0484 10.8126H28.7673C28.9009 11.2801 29.3157 11.8029 30.068 12.3788C30.8392 12.9693 31.5314 13.8646 31.5314 15.0313C31.5314 16.6276 30.2739 17.6941 29.1065 18.2778C27.855 18.9036 26.2244 19.2501 24.5001 19.2501C22.7759 19.2501 21.1453 18.9036 19.8938 18.2778C18.7264 17.6941 17.4689 16.6276 17.4689 15.0313C17.4689 13.8646 18.1611 12.9693 18.9323 12.3788C19.6846 11.8029 20.0994 11.2801 20.233 10.8125L14.9515 10.8125Z" fill="white"/>
</svg>
