<svg width="50" height="50" viewBox="0 0 50 50" fill="none" xmlns="http://www.w3.org/2000/svg">
<g clip-path="url(#clip0_22_147)">
<path d="M23.9038 9.58125L21.6566 13.1756C21.5904 13.282 21.5539 13.4042 21.5508 13.5294C21.5477 13.6547 21.5781 13.7785 21.6389 13.8881C21.6997 13.9976 21.7887 14.0889 21.8966 14.1526C22.0046 14.2162 22.1275 14.2498 22.2528 14.25H26.7472C26.8725 14.2498 26.9955 14.2162 27.1034 14.1526C27.2113 14.0889 27.3003 13.9976 27.3611 13.8881C27.4219 13.7785 27.4523 13.6547 27.4492 13.5294C27.4461 13.4042 27.4096 13.282 27.3435 13.1756L25.0963 9.57844C25.0331 9.47731 24.9452 9.39392 24.8409 9.33611C24.7366 9.2783 24.6193 9.24797 24.5 9.24797C24.3808 9.24797 24.2635 9.2783 24.1592 9.33611C24.0549 9.39392 23.967 9.48012 23.9038 9.58125ZM23.9038 41.4188L21.6566 37.8272C21.5897 37.7207 21.5526 37.5983 21.5491 37.4726C21.5456 37.3469 21.5759 37.2226 21.6368 37.1126C21.6977 37.0026 21.7869 36.9109 21.8953 36.8472C22.0036 36.7834 22.1271 36.7498 22.2528 36.75H26.7472C26.8729 36.7498 26.9964 36.7834 27.1048 36.8472C27.2131 36.9109 27.3024 37.0026 27.3633 37.1126C27.4241 37.2226 27.4544 37.3469 27.4509 37.4726C27.4475 37.5983 27.4103 37.7207 27.3435 37.8272L25.0963 41.4216C25.0331 41.5227 24.9452 41.6061 24.8409 41.6639C24.7366 41.7217 24.6193 41.752 24.5 41.752C24.3808 41.752 24.2635 41.7217 24.1592 41.6639C24.0549 41.6061 23.967 41.5199 23.9038 41.4188ZM12.1728 28.3406L8.58126 26.0991C8.48014 26.0359 8.39675 25.948 8.33894 25.8437C8.28112 25.7394 8.25079 25.6221 8.25079 25.5028C8.25079 25.3836 8.28112 25.2663 8.33894 25.162C8.39675 25.0577 8.48014 24.9698 8.58126 24.9066L12.1756 22.6594C12.2818 22.5933 12.4037 22.5568 12.5288 22.5536C12.6538 22.5504 12.7774 22.5806 12.8869 22.641C12.9963 22.7015 13.0877 22.7901 13.1515 22.8976C13.2154 23.0051 13.2494 23.1278 13.25 23.2528V27.75C13.2502 27.8757 13.2166 27.9992 13.1528 28.1075C13.0891 28.2159 12.9974 28.3052 12.8874 28.3661C12.7774 28.4269 12.6531 28.4572 12.5274 28.4537C12.4017 28.4503 12.2793 28.4131 12.1728 28.3463V28.3406ZM40.4188 26.0963L36.8272 28.3434C36.7207 28.4103 36.5983 28.4474 36.4726 28.4509C36.3469 28.4544 36.2226 28.4241 36.1126 28.3632C36.0026 28.3024 35.911 28.2131 35.8472 28.1047C35.7834 27.9964 35.7499 27.8729 35.75 27.7472V23.25C35.7499 23.1243 35.7834 23.0008 35.8472 22.8925C35.911 22.7841 36.0026 22.6948 36.1126 22.6339C36.2226 22.5731 36.3469 22.5428 36.4726 22.5463C36.5983 22.5497 36.7207 22.5869 36.8272 22.6538L40.4216 24.9009C40.5227 24.9641 40.6061 25.052 40.6639 25.1563C40.7217 25.2606 40.752 25.3779 40.752 25.4972C40.752 25.6164 40.7217 25.7337 40.6639 25.838C40.6061 25.9423 40.5227 26.0302 40.4216 26.0934L40.4188 26.0963Z" fill="white"/>
<path d="M20.2812 3C19.1624 3 18.0893 3.44447 17.2981 4.23564C16.507 5.02681 16.0625 6.09987 16.0625 7.21875V15.6562C16.0625 16.0292 15.9143 16.3869 15.6506 16.6506C15.3869 16.9143 15.0292 17.0625 14.6562 17.0625H6.21875C5.09987 17.0625 4.02681 17.507 3.23564 18.2981C2.44447 19.0893 2 20.1624 2 21.2812L2 29.7188C2 30.8376 2.44447 31.9107 3.23564 32.7019C4.02681 33.493 5.09987 33.9375 6.21875 33.9375H14.6562C15.0292 33.9375 15.3869 34.0857 15.6506 34.3494C15.9143 34.6131 16.0625 34.9708 16.0625 35.3438V43.7812C16.0625 44.9001 16.507 45.9732 17.2981 46.7644C18.0893 47.5555 19.1624 48 20.2812 48H28.7188C29.8376 48 30.9107 47.5555 31.7019 46.7644C32.493 45.9732 32.9375 44.9001 32.9375 43.7812V35.3438C32.9375 34.9708 33.0857 34.6131 33.3494 34.3494C33.6131 34.0857 33.9708 33.9375 34.3438 33.9375H42.7812C43.9001 33.9375 44.9732 33.493 45.7644 32.7019C46.5555 31.9107 47 30.8376 47 29.7188V21.2812C47 20.1624 46.5555 19.0893 45.7644 18.2981C44.9732 17.507 43.9001 17.0625 42.7812 17.0625H34.3438C33.9708 17.0625 33.6131 16.9143 33.3494 16.6506C33.0857 16.3869 32.9375 16.0292 32.9375 15.6562V7.21875C32.9375 6.09987 32.493 5.02681 31.7019 4.23564C30.9107 3.44447 29.8376 3 28.7188 3L20.2812 3ZM18.875 7.21875C18.875 6.84579 19.0232 6.4881 19.2869 6.22438C19.5506 5.96066 19.9083 5.8125 20.2812 5.8125H28.7188C29.0917 5.8125 29.4494 5.96066 29.7131 6.22438C29.9768 6.4881 30.125 6.84579 30.125 7.21875V15.6562C30.125 16.7751 30.5695 17.8482 31.3606 18.6394C32.1518 19.4305 33.2249 19.875 34.3438 19.875H42.7812C43.1542 19.875 43.5119 20.0232 43.7756 20.2869C44.0393 20.5506 44.1875 20.9083 44.1875 21.2812V29.7188C44.1875 30.0917 44.0393 30.4494 43.7756 30.7131C43.5119 30.9768 43.1542 31.125 42.7812 31.125H34.3438C33.2249 31.125 32.1518 31.5695 31.3606 32.3606C30.5695 33.1518 30.125 34.2249 30.125 35.3438V43.7812C30.125 44.1542 29.9768 44.5119 29.7131 44.7756C29.4494 45.0393 29.0917 45.1875 28.7188 45.1875H20.2812C19.9083 45.1875 19.5506 45.0393 19.2869 44.7756C19.0232 44.5119 18.875 44.1542 18.875 43.7812V35.3438C18.875 34.2249 18.4305 33.1518 17.6394 32.3606C16.8482 31.5695 15.7751 31.125 14.6562 31.125H6.21875C5.84579 31.125 5.4881 30.9768 5.22438 30.7131C4.96066 30.4494 4.8125 30.0917 4.8125 29.7188V21.2812C4.8125 20.9083 4.96066 20.5506 5.22438 20.2869C5.4881 20.0232 5.84579 19.875 6.21875 19.875H14.6562C15.7751 19.875 16.8482 19.4305 17.6394 18.6394C18.4305 17.8482 18.875 16.7751 18.875 15.6562V7.21875Z" fill="white"/>
</g>
<defs>
<clipPath id="clip0_22_147">
<rect width="45" height="45" fill="white" transform="translate(2 3)"/>
</clipPath>
</defs>
</svg>
