<svg width="50" height="50" viewBox="0 0 50 50" fill="none" xmlns="http://www.w3.org/2000/svg">
<g clip-path="url(#clip0_22_148)">
<path d="M20.2812 3C19.1624 3 18.0893 3.44447 17.2981 4.23564C16.507 5.02681 16.0625 6.09987 16.0625 7.21875V15.6562C16.0625 16.0292 15.9143 16.3869 15.6506 16.6506C15.3869 16.9143 15.0292 17.0625 14.6562 17.0625H6.21875C5.09987 17.0625 4.02681 17.507 3.23564 18.2981C2.44447 19.0893 2 20.1624 2 21.2812L2 29.7188C2 30.8376 2.44447 31.9107 3.23564 32.7019C4.02681 33.493 5.09987 33.9375 6.21875 33.9375H14.6562C15.0292 33.9375 15.3869 34.0857 15.6506 34.3494C15.9143 34.6131 16.0625 34.9708 16.0625 35.3438V43.7812C16.0625 44.9001 16.507 45.9732 17.2981 46.7644C18.0893 47.5555 19.1624 48 20.2812 48H28.7188C29.8376 48 30.9107 47.5555 31.7019 46.7644C32.493 45.9732 32.9375 44.9001 32.9375 43.7812V35.3438C32.9375 34.9708 33.0857 34.6131 33.3494 34.3494C33.6131 34.0857 33.9708 33.9375 34.3438 33.9375H42.7812C43.9001 33.9375 44.9732 33.493 45.7644 32.7019C46.5555 31.9107 47 30.8376 47 29.7188V21.2812C47 20.1624 46.5555 19.0893 45.7644 18.2981C44.9732 17.507 43.9001 17.0625 42.7812 17.0625H34.3438C33.9708 17.0625 33.6131 16.9143 33.3494 16.6506C33.0857 16.3869 32.9375 16.0292 32.9375 15.6562V7.21875C32.9375 6.09987 32.493 5.02681 31.7019 4.23564C30.9107 3.44447 29.8376 3 28.7188 3L20.2812 3ZM23.9038 9.58125C23.967 9.48012 24.0548 9.39673 24.1591 9.33892C24.2635 9.28111 24.3807 9.25078 24.5 9.25078C24.6193 9.25078 24.7366 9.28111 24.8409 9.33892C24.9452 9.39673 25.033 9.48012 25.0962 9.58125L27.3434 13.1756C27.4096 13.282 27.4461 13.4042 27.4492 13.5294C27.4523 13.6547 27.4219 13.7785 27.3611 13.8881C27.3003 13.9976 27.2113 14.0889 27.1034 14.1526C26.9955 14.2162 26.8725 14.2498 26.7472 14.25H22.2528C22.1275 14.2498 22.0045 14.2162 21.8966 14.1526C21.7887 14.0889 21.6997 13.9976 21.6389 13.8881C21.5781 13.7785 21.5477 13.6547 21.5508 13.5294C21.5539 13.4042 21.5904 13.282 21.6566 13.1756L23.9038 9.58125ZM23.9038 41.4187L21.6566 37.8272C21.5897 37.7207 21.5526 37.5983 21.5491 37.4726C21.5456 37.3469 21.5759 37.2226 21.6368 37.1126C21.6976 37.0026 21.7869 36.9109 21.8953 36.8472C22.0036 36.7834 22.1271 36.7498 22.2528 36.75H26.75C26.8757 36.7498 26.9992 36.7834 27.1075 36.8472C27.2159 36.9109 27.3052 37.0026 27.3661 37.1126C27.4269 37.2226 27.4572 37.3469 27.4537 37.4726C27.4503 37.5983 27.4131 37.7207 27.3463 37.8272L25.0991 41.4216C25.0359 41.5227 24.948 41.6061 24.8437 41.6639C24.7394 41.7217 24.6221 41.752 24.5028 41.752C24.3836 41.752 24.2663 41.7217 24.162 41.6639C24.0577 41.6061 23.9698 41.5227 23.9066 41.4216L23.9038 41.4187ZM12.1756 28.3406L8.57844 26.0962C8.47731 26.033 8.39392 25.9452 8.33611 25.8409C8.2783 25.7366 8.24797 25.6193 8.24797 25.5C8.24797 25.3807 8.2783 25.2635 8.33611 25.1591C8.39392 25.0548 8.47731 24.967 8.57844 24.9038L12.1756 22.6566C12.282 22.5904 12.4042 22.5539 12.5294 22.5508C12.6547 22.5477 12.7785 22.5781 12.8881 22.6389C12.9976 22.6997 13.0889 22.7887 13.1526 22.8966C13.2162 23.0045 13.2498 23.1275 13.25 23.2528V27.75C13.2498 27.8753 13.2162 27.9983 13.1526 28.1062C13.0889 28.2141 12.9976 28.3031 12.8881 28.3639C12.7785 28.4247 12.6547 28.4551 12.5294 28.452C12.4042 28.4489 12.282 28.4124 12.1756 28.3463V28.3406ZM40.4216 26.0962L36.8272 28.3434C36.7207 28.4103 36.5983 28.4474 36.4726 28.4509C36.3469 28.4544 36.2226 28.4241 36.1126 28.3632C36.0026 28.3024 35.9109 28.2131 35.8472 28.1047C35.7834 27.9964 35.7498 27.8729 35.75 27.7472V23.25C35.7498 23.1243 35.7834 23.0008 35.8472 22.8925C35.9109 22.7841 36.0026 22.6948 36.1126 22.6339C36.2226 22.5731 36.3469 22.5428 36.4726 22.5463C36.5983 22.5497 36.7207 22.5869 36.8272 22.6537L40.4216 24.9009C40.5227 24.9641 40.6061 25.052 40.6639 25.1563C40.7217 25.2606 40.752 25.3779 40.752 25.4972C40.752 25.6164 40.7217 25.7337 40.6639 25.838C40.6061 25.9423 40.5227 26.033 40.4216 26.0962Z" fill="white"/>
</g>
<defs>
<clipPath id="clip0_22_148">
<rect width="45" height="45" fill="white" transform="translate(2 3)"/>
</clipPath>
</defs>
</svg>
