<svg width="50" height="50" viewBox="0 0 50 50" fill="none" xmlns="http://www.w3.org/2000/svg">
<g clip-path="url(#clip0_22_158)">
<path d="M24.5 16.3706C23.3011 16.3706 22.1139 16.6068 21.0063 17.0656C19.8987 17.5244 18.8923 18.1968 18.0445 19.0446C17.1968 19.8923 16.5243 20.8987 16.0655 22.0063C15.6067 23.114 15.3706 24.3011 15.3706 25.5C15.3706 26.6989 15.6067 27.886 16.0655 28.9937C16.5243 30.1013 17.1968 31.1077 18.0445 31.9554C18.8923 32.8032 19.8987 33.4756 21.0063 33.9344C22.1139 34.3932 23.3011 34.6294 24.5 34.6294C26.9212 34.6294 29.2433 33.6675 30.9554 31.9554C32.6675 30.2434 33.6294 27.9213 33.6294 25.5C33.6294 23.0787 32.6675 20.7566 30.9554 19.0446C29.2433 17.3325 26.9212 16.3706 24.5 16.3706ZM18.1831 25.5C18.1831 23.8247 18.8486 22.2179 20.0333 21.0333C21.2179 19.8486 22.8246 19.1831 24.5 19.1831C26.1753 19.1831 27.782 19.8486 28.9667 21.0333C30.1513 22.2179 30.8169 23.8247 30.8169 25.5C30.8169 27.1753 30.1513 28.7821 28.9667 29.9667C27.782 31.1513 26.1753 31.8169 24.5 31.8169C22.8246 31.8169 21.2179 31.1513 20.0333 29.9667C18.8486 28.7821 18.1831 27.1753 18.1831 25.5Z" fill="white"/>
<path d="M29.5512 6.77719C28.0691 1.74281 20.9309 1.74281 19.4487 6.77719L19.1844 7.67437C19.0809 8.0258 18.9 8.34961 18.6551 8.62207C18.4102 8.89453 18.1074 9.10872 17.769 9.24896C17.4305 9.38919 17.065 9.45191 16.6991 9.43252C16.3333 9.41312 15.9764 9.31211 15.6547 9.13687L14.8334 8.68687C10.2209 6.17812 5.17812 11.2237 7.68969 15.8334L8.13687 16.6547C8.31211 16.9764 8.41312 17.3333 8.43252 17.6991C8.45191 18.065 8.38919 18.4305 8.24896 18.769C8.10872 19.1074 7.89452 19.4102 7.62207 19.6551C7.34961 19.9 7.0258 20.0809 6.67437 20.1844L5.77718 20.4487C0.74281 21.9309 0.74281 29.0691 5.77718 30.5512L6.67437 30.8156C7.0258 30.9191 7.34961 31.1 7.62207 31.3449C7.89452 31.5898 8.10872 31.8926 8.24896 32.231C8.38919 32.5695 8.45191 32.935 8.43252 33.3009C8.41312 33.6667 8.31211 34.0236 8.13687 34.3453L7.68687 35.1666C5.17812 39.7791 10.2209 44.8247 14.8334 42.3103L15.6547 41.8631C15.9764 41.6879 16.3333 41.5869 16.6991 41.5675C17.065 41.5481 17.4305 41.6108 17.769 41.751C18.1074 41.8913 18.4102 42.1055 18.6551 42.3779C18.9 42.6504 19.0809 42.9742 19.1844 43.3256L19.4487 44.2228C20.9309 49.2572 28.0691 49.2572 29.5512 44.2228L29.8156 43.3256C29.9191 42.9742 30.1 42.6504 30.3449 42.3779C30.5898 42.1055 30.8926 41.8913 31.231 41.751C31.5695 41.6108 31.935 41.5481 32.3009 41.5675C32.6667 41.5869 33.0236 41.6879 33.3453 41.8631L34.1666 42.3131C38.7791 44.8247 43.8247 39.7763 41.3103 35.1666L40.8631 34.3453C40.6879 34.0236 40.5869 33.6667 40.5675 33.3009C40.5481 32.935 40.6108 32.5695 40.751 32.231C40.8913 31.8926 41.1055 31.5898 41.3779 31.3449C41.6504 31.1 41.9742 30.9191 42.3256 30.8156L43.2228 30.5512C48.2572 29.0691 48.2572 21.9309 43.2228 20.4487L42.3256 20.1844C41.9742 20.0809 41.6504 19.9 41.3779 19.6551C41.1055 19.4102 40.8913 19.1074 40.751 18.769C40.6108 18.4305 40.5481 18.065 40.5675 17.6991C40.5869 17.3333 40.6879 16.9764 40.8631 16.6547L41.3131 15.8334C43.8247 11.2209 38.7762 6.17812 34.1666 8.68969L33.3453 9.13687C33.0236 9.31211 32.6667 9.41312 32.3009 9.43252C31.935 9.45191 31.5695 9.38919 31.231 9.24896C30.8926 9.10872 30.5898 8.89453 30.3449 8.62207C30.1 8.34961 29.9191 8.0258 29.8156 7.67437L29.5512 6.77719ZM22.1459 7.57312C22.8378 5.22469 26.1622 5.22469 26.8541 7.57312L27.1184 8.47031C27.3407 9.2243 27.7288 9.919 28.2545 10.5035C28.7801 11.0879 29.4299 11.5474 30.1561 11.8481C30.8824 12.1488 31.6668 12.2831 32.4517 12.2413C33.2367 12.1994 34.0023 11.9825 34.6925 11.6062L35.5109 11.1562C37.6597 9.98906 40.0109 12.3375 38.8409 14.4891L38.3937 15.3103C38.0181 16.0006 37.8017 16.7661 37.7603 17.5509C37.7189 18.3357 37.8536 19.1198 38.1545 19.8457C38.4555 20.5717 38.9151 21.2211 39.4995 21.7464C40.084 22.2717 40.7787 22.6595 41.5325 22.8816L42.4269 23.1459C44.7753 23.8378 44.7753 27.1622 42.4269 27.8541L41.5297 28.1184C40.7757 28.3407 40.081 28.7288 39.4965 29.2545C38.9121 29.7801 38.4526 30.4299 38.1519 31.1562C37.8512 31.8824 37.7169 32.6668 37.7587 33.4517C37.8006 34.2367 38.0175 35.0023 38.3937 35.6925L38.8437 36.5109C40.0109 38.6597 37.6625 41.0109 35.5109 39.8409L34.6925 39.3937C34.0021 39.0176 33.2363 38.8007 32.4512 38.759C31.6661 38.7174 30.8816 38.852 30.1553 39.153C29.429 39.4539 28.7793 39.9137 28.2538 40.4985C27.7283 41.0833 27.3404 41.7783 27.1184 42.5325L26.8541 43.4269C26.1622 45.7753 22.8378 45.7753 22.1459 43.4269L21.8816 42.5297C21.6592 41.7761 21.2711 41.0818 20.7457 40.4976C20.2202 39.9134 19.5708 39.4542 18.8449 39.1535C18.119 38.8529 17.335 38.7184 16.5504 38.7599C15.7658 38.8015 15.0004 39.0181 14.3103 39.3937L13.4891 39.8438C11.3403 41.0109 8.98906 38.6625 10.1591 36.5109L10.6062 35.6925C10.983 35.0022 11.2004 34.2363 11.2425 33.451C11.2846 32.6658 11.1504 31.881 10.8497 31.1544C10.5489 30.4277 10.0893 29.7777 9.50453 29.2518C8.91977 28.726 8.22469 28.3378 7.47031 28.1156L6.57312 27.8513C4.22469 27.1594 4.22469 23.835 6.57312 23.1431L7.47031 22.8787C8.22351 22.6563 8.91745 22.2683 9.50133 21.743C10.0852 21.2178 10.5443 20.5686 10.8449 19.8431C11.1455 19.1175 11.2801 18.334 11.2388 17.5497C11.1975 16.7654 10.9814 16.0003 10.6062 15.3103L10.1562 14.4891C8.98906 12.3403 11.3375 9.98906 13.4891 11.1591L14.3103 11.6062C15.0004 11.9819 15.7658 12.1985 16.5504 12.2401C17.335 12.2816 18.119 12.1471 18.8449 11.8465C19.5708 11.5458 20.2202 11.0866 20.7457 10.5024C21.2711 9.91823 21.6592 9.22391 21.8816 8.47031L22.1459 7.57312Z" fill="white"/>
</g>
<defs>
<clipPath id="clip0_22_158">
<rect width="45" height="45" fill="white" transform="translate(2 3)"/>
</clipPath>
</defs>
</svg>
