<svg width="50" height="50" viewBox="0 0 50 50" fill="none" xmlns="http://www.w3.org/2000/svg">
<g clip-path="url(#clip0_22_157)">
<path d="M28.4516 5.95312C27.29 2.01562 21.71 2.01562 20.5484 5.95312L20.2672 6.90937C20.0936 7.49886 19.7903 8.04202 19.3795 8.49904C18.9687 8.95605 18.4609 9.31531 17.8931 9.55049C17.3254 9.78567 16.7123 9.8908 16.0986 9.85816C15.485 9.82552 14.8864 9.65595 14.3469 9.36188L13.475 8.88375C9.86656 6.92062 5.92062 10.8666 7.88656 14.4722L8.36188 15.3469C9.61625 17.6531 8.42656 20.5247 5.90937 21.2672L4.95312 21.5484C1.01562 22.71 1.01562 28.29 4.95312 29.4516L5.90937 29.7328C6.49886 29.9064 7.04202 30.2097 7.49904 30.6205C7.95605 31.0313 8.31531 31.5391 8.55049 32.1069C8.78567 32.6746 8.8908 33.2877 8.85816 33.9014C8.82552 34.515 8.65595 35.1136 8.36188 35.6531L7.88375 36.525C5.92062 40.1334 9.86656 44.0794 13.4722 42.1134L14.3469 41.6381C14.8864 41.3441 15.485 41.1745 16.0986 41.1418C16.7123 41.1092 17.3254 41.2143 17.8931 41.4495C18.4609 41.6847 18.9687 42.044 19.3795 42.501C19.7903 42.958 20.0936 43.5011 20.2672 44.0906L20.5484 45.0469C21.71 48.9844 27.29 48.9844 28.4516 45.0469L28.7328 44.0906C28.9064 43.5011 29.2097 42.958 29.6205 42.501C30.0313 42.044 30.5391 41.6847 31.1069 41.4495C31.6746 41.2143 32.2877 41.1092 32.9014 41.1418C33.515 41.1745 34.1136 41.3441 34.6531 41.6381L35.525 42.1162C39.1334 44.0794 43.0794 40.1334 41.1134 36.5278L40.6381 35.6531C40.3441 35.1136 40.1745 34.515 40.1418 33.9014C40.1092 33.2877 40.2143 32.6746 40.4495 32.1069C40.6847 31.5391 41.044 31.0313 41.501 30.6205C41.958 30.2097 42.5011 29.9064 43.0906 29.7328L44.0469 29.4516C47.9844 28.29 47.9844 22.71 44.0469 21.5484L43.0906 21.2672C42.5011 21.0936 41.958 20.7903 41.501 20.3795C41.044 19.9687 40.6847 19.4609 40.4495 18.8931C40.2143 18.3254 40.1092 17.7123 40.1418 17.0986C40.1745 16.485 40.3441 15.8864 40.6381 15.3469L41.1162 14.475C43.0794 10.8666 39.1334 6.92062 35.5278 8.88656L34.6531 9.36188C34.1136 9.65595 33.515 9.82552 32.9014 9.85816C32.2877 9.8908 31.6746 9.78567 31.1069 9.55049C30.5391 9.31531 30.0313 8.95605 29.6205 8.49904C29.2097 8.04202 28.9064 7.49886 28.7328 6.90937L28.4516 5.95312ZM24.5 33.7406C22.3145 33.7406 20.2184 32.8724 18.673 31.327C17.1276 29.7816 16.2594 27.6855 16.2594 25.5C16.2594 23.3145 17.1276 21.2184 18.673 19.673C20.2184 18.1276 22.3145 17.2594 24.5 17.2594C26.6848 17.2594 28.7801 18.1273 30.325 19.6722C31.8699 21.2171 32.7378 23.3124 32.7378 25.4972C32.7378 27.682 31.8699 29.7773 30.325 31.3222C28.7801 32.8671 26.6848 33.735 24.5 33.735V33.7406Z" fill="white"/>
</g>
<defs>
<clipPath id="clip0_22_157">
<rect width="45" height="45" fill="white" transform="translate(2 3)"/>
</clipPath>
</defs>
</svg>
