<svg width="20" height="20" viewBox="0 0 20 20" fill="none" xmlns="http://www.w3.org/2000/svg">
<path fill-rule="evenodd" clip-rule="evenodd" d="M0.853553 0.146447C0.658291 -0.0488155 0.341709 -0.0488155 0.146447 0.146447C-0.0488155 0.341709 -0.0488155 0.658291 0.146447 0.853553L9.29408 10.0012L0.146447 19.1488C-0.0488155 19.3441 -0.0488155 19.6607 0.146447 19.8559C0.341709 20.0512 0.658291 20.0512 0.853553 19.8559L10.0012 10.7083L19.1488 19.8559C19.3441 20.0512 19.6607 20.0512 19.8559 19.8559C20.0512 19.6607 20.0512 19.3441 19.8559 19.1488L10.7083 10.0012L19.8559 0.853561C20.0512 0.658298 20.0512 0.341716 19.8559 0.146453C19.6607 -0.0488099 19.3441 -0.0488099 19.1488 0.146453L10.0012 9.29408L0.853553 0.146447Z" fill="white"/>
</svg>
